<?xml version="1.0" standalone="no"?>
<!DOCTYPE svg PUBLIC "-//W3C//DTD SVG 20010904//EN"
 "http://www.w3.org/TR/2001/REC-SVG-20010904/DTD/svg10.dtd">
<svg version="1.0" xmlns="http://www.w3.org/2000/svg"
 width="260.000000pt" height="260.000000pt" viewBox="0 0 260.000000 260.000000"
 preserveAspectRatio="xMidYMid meet">
<metadata>
Created by potrace 1.11, written by Peter Selinger 2001-2013
</metadata>
<g transform="translate(0.000000,260.000000) scale(0.100000,-0.100000)"
fill="#000000" stroke="none">
<path d="M0 1300 l0 -1300 1300 0 1300 0 0 1300 0 1300 -1300 0 -1300 0 0
-1300z m998 463 c49 -126 136 -348 193 -495 57 -147 106 -268 109 -268 3 0 56
132 119 293 63 160 150 383 193 495 l80 202 122 0 c82 0 126 -4 134 -12 17
-17 17 -1279 0 -1296 -16 -16 -190 -16 -206 0 -14 14 -15 352 -3 683 5 116 8
211 6 213 -1 1 -84 -203 -185 -453 l-184 -455 -76 0 -77 0 -177 442 c-160 398
-211 515 -193 438 4 -14 10 -210 13 -437 6 -329 5 -415 -6 -428 -16 -19 -189
-22 -208 -3 -17 17 -17 1279 0 1296 8 8 52 12 134 12 l122 0 90 -227z"/>
</g>
</svg>
